<svg width="469" height="451" viewBox="0 0 469 451" fill="none" xmlns="http://www.w3.org/2000/svg">
<rect width="469" height="451" fill="black"/>
<path d="M257.773 136C258.04 136 258.173 136.4 258.173 137.2C258.173 138 258.04 138.4 257.773 138.4C253.373 138.4 250.173 138.8 248.173 139.6C246.173 140.4 244.773 141.8 243.973 143.8C243.307 145.667 242.973 148.6 242.973 152.6V266.6C242.973 279.8 239.907 290.267 233.773 298C227.64 305.867 218.773 309.8 207.173 309.8C202.64 309.8 199.107 309 196.573 307.4C193.907 305.933 192.573 303.867 192.573 301.2C192.573 299.2 193.173 297.6 194.373 296.4C195.573 295.2 197.24 294.6 199.373 294.6C201.64 294.6 203.373 295.067 204.573 296C205.773 297.067 207.04 298.6 208.373 300.6C209.573 302.467 210.64 303.8 211.573 304.6C212.507 305.4 213.84 305.8 215.573 305.8C220.373 305.8 223.907 303 226.173 297.4C228.573 291.933 229.773 283.067 229.773 270.8V152.2C229.773 148.2 229.307 145.267 228.373 143.4C227.44 141.533 225.573 140.267 222.773 139.6C220.107 138.8 215.907 138.4 210.173 138.4C209.907 138.4 209.773 138 209.773 137.2C209.773 136.4 209.907 136 210.173 136L221.773 136.2C227.907 136.467 232.707 136.6 236.173 136.6C239.64 136.6 243.907 136.467 248.973 136.2L257.773 136Z" fill="white"/>
<path d="M213.879 183.4C213.879 188.6 215.146 193.133 217.679 197C220.212 200.867 223.279 204.133 226.879 206.8C230.612 209.333 235.679 212.533 242.079 216.4C249.146 220.667 254.546 224.2 258.279 227C262.146 229.8 265.412 233.4 268.079 237.8C270.879 242.067 272.279 247.2 272.279 253.2C272.279 259.6 270.679 265.4 267.479 270.6C264.279 275.8 259.546 279.933 253.279 283C247.146 285.933 239.746 287.4 231.079 287.4C220.812 287.4 211.412 285.067 202.879 280.4C202.212 280 201.746 279.533 201.479 279C201.346 278.467 201.212 277.667 201.079 276.6L198.479 249.4C198.346 248.867 198.612 248.533 199.279 248.4C200.079 248.267 200.546 248.467 200.679 249C202.812 258.6 206.746 266.867 212.479 273.8C218.346 280.733 226.079 284.2 235.679 284.2C242.346 284.2 247.946 282.4 252.479 278.8C257.146 275.067 259.479 269.2 259.479 261.2C259.479 255.2 258.146 250 255.479 245.6C252.812 241.2 249.546 237.6 245.679 234.8C241.946 231.867 236.812 228.467 230.279 224.6C223.879 220.733 218.812 217.4 215.079 214.6C211.479 211.8 208.412 208.267 205.879 204C203.346 199.733 202.079 194.733 202.079 189C202.079 182.333 203.812 176.667 207.279 172C210.879 167.2 215.479 163.667 221.079 161.4C226.812 159 232.879 157.8 239.279 157.8C247.146 157.8 254.946 159.4 262.679 162.6C264.679 163.267 265.679 164.4 265.679 166L267.079 189C267.079 189.533 266.746 189.8 266.079 189.8C265.412 189.8 265.012 189.533 264.879 189C263.812 182.067 260.946 175.667 256.279 169.8C251.612 163.8 244.879 160.8 236.079 160.8C228.612 160.8 223.012 163 219.279 167.4C215.679 171.667 213.879 177 213.879 183.4Z" fill="white"/>
<circle cx="234.5" cy="338.5" r="12.5" fill="#FF6812"/>
</svg>
