<?xml version="1.0" encoding="utf-8"?>
<!-- Generator: Adobe Illustrator 22.1.0, SVG Export Plug-In . SVG Version: 6.00 Build 0)  -->
<svg version="1.1" id="Layer_1" xmlns="http://www.w3.org/2000/svg" xmlns:xlink="http://www.w3.org/1999/xlink" x="0px" y="0px"
	 viewBox="0 0 1920 1080" style="enable-background:new 0 0 1920 1080;" xml:space="preserve">
<style type="text/css">
	.st0{fill:#C89E54;}
	.st1{fill:#362E2B;}
</style>
<g>
	<path class="st0" d="M538.2,617.1c0,0,9.5-5.1,8.5-12.5c-1-7.4-12.1-5.8-12.9-21.4c-0.4-8.3,13.1-11.7,11.7-23
		c-1.4-10.6-29.8,0.9-44.2-44.7c-13.1-41.7-14.7-46.6-45.9-73.1h76v-30.3h-96.8V224.8h-23.3h-22.6c0,0,7.1,128.6-100.1,187.3v21.6
		c16.7,0,27.4,4.6,32,13.8c4.6,9.2,7.2,21.3,7.8,36.3v42.3c-7.7-6.7-17.7-12.9-30.2-18.6c-13.5-6.2-28.6-9.3-45.5-9.3
		c-25.3,0-48.8,4.1-70.7,12.2c-21.9,8.1-40.7,19.8-56.4,34.9c-15.7,15.2-28.1,33.8-37,56c-9,22.2-13.5,47.3-13.5,75.3
		c0,28.1,4.8,53.2,14.3,75.3c9.5,22.2,22.6,40.8,39.1,56c16.5,15.2,36.1,26.8,58.5,34.9c22.4,8.1,46.3,12.2,71.6,12.2
		c12.9,0,25.7-2.4,38.3-7.2c10.4-3.9,19.7-9.7,28-17.2c13.9-13.6,23.2-27.2,24.9-29.8c5.6,8.1,12,15.4,19.2,21.8
		c12.1,10.7,25.9,18.7,41.5,24.2c15.6,5.5,31.4,8.2,47.5,8.2c16.1,0,32-2.9,47.5-8.6c15.6-5.8,29.7-14.4,42.4-25.9l-14.7-16.4
		c-6.3,5.2-13.1,8.9-20.3,11.2c-7.2,2.3-14,3.5-20.3,3.5c-15.6,0-29.1-7.3-40.6-22c-34.6-55.3,33.7-113.4,33.7-113.4
		c12.8-7.4,60.3-0.8,62.8-25.7c1.7-17.1-12.8-13.6,0.3-32.9C548.6,624.8,552.3,618.2,538.2,617.1z M328.2,729.9
		c0,52.2-6.5,66.3-6.5,66.3c-3.6,10.5-8.1,18.8-13.5,24.9c-6.1,7-13,11.8-20.5,14.3c-7.5,2.5-14.7,3.8-21.3,3.8
		c-21.2,0-39.3-14.2-54.4-42.5c-15.1-28.3-22.6-68-22.6-119.1c0-22.4,1.8-43.8,5.4-64c3.6-20.2,8.6-37.6,15.1-52.2
		c6.4-14.6,14.2-26.2,23.4-34.9c9.2-8.7,19.7-13,31.4-13c11.2,0,20.8,2.9,28.9,8.8c8.1,5.9,14.8,13.5,20.1,22.7
		c5.3,9.3,9.2,19.9,11.7,32c1.3,6.2,2.2,12.4,2.8,18.6V729.9z M434.5,442.3h16.2c13.2,22.6,43.5,87.9-1.4,152.7
		c-5.2,7.5-10.2,15.1-14.8,22.7V442.3z"/>
	<g>
		<g>
			<path class="st1" d="M823.2,575.6c-4.6,10.9-11,20.4-19.4,28.3c-8.4,8-18.4,14.2-30,18.8c-11.6,4.6-24.3,6.9-38.2,6.9h-61.7
				V451.7h61.7c13.9,0,26.6,2.2,38.2,6.7c11.6,4.5,21.6,10.7,30,18.7c8.4,8,14.9,17.4,19.4,28.2c4.6,10.8,6.9,22.5,6.9,35.1
				C830.1,552.9,827.8,564.6,823.2,575.6z M804,513.2c-3.5-8.6-8.4-16.1-14.7-22.5c-6.4-6.4-14.1-11.3-23.2-15
				c-9.1-3.6-19.3-5.5-30.5-5.5h-41.7V611h41.7c11.2,0,21.3-1.8,30.5-5.3c9.1-3.6,16.9-8.5,23.2-14.9c6.4-6.4,11.3-13.8,14.7-22.2
				c3.5-8.5,5.2-17.7,5.2-27.7C809.3,531.1,807.5,521.8,804,513.2z"/>
			<path class="st1" d="M894.3,491.7c2.7-3.5,3.8-7.9,3.3-13.3h-9.1v-26.7h23.4v22.9c0,10.3-2.3,18.2-6.9,23.5
				c-4.6,5.3-11.7,9.1-21.3,11.3l-3-8.9C887.1,498.1,891.6,495.2,894.3,491.7z"/>
			<path class="st1" d="M1042.4,629.5h-20.1V470.3h-59.7v-18.5h139.4v18.5h-59.7V629.5z"/>
			<path class="st1" d="M1182.1,451.7v177.8h-20.1V451.7H1182.1z"/>
			<path class="st1" d="M1420.1,629.5h-21.6l-20.8-47h-96.8l-21.1,47h-20.6l81-179.1h18.8L1420.1,629.5z M1329.4,474.1l-40.6,90.7
				h81L1329.4,474.1z"/>
			<path class="st1" d="M1597.9,629.5l-51.6-69.1h-50.8v69.1h-20.1V451.7h76.5c9.8,0,18.7,1.3,26.5,3.8c7.9,2.5,14.6,6.1,20.2,10.8
				c5.6,4.7,9.9,10.3,13,16.8c3,6.5,4.6,13.8,4.6,21.7c0,7.5-1.2,14.1-3.6,19.9c-2.4,5.8-5.7,10.9-10,15.2
				c-4.3,4.3-9.4,7.9-15.4,10.8c-5.9,2.9-12.4,4.9-19.3,6.1l54.6,72.6H1597.9z M1584.2,479.6c-8-6.2-19.2-9.3-33.6-9.3h-55v72.4
				h54.7c6.6,0,12.7-0.8,18.3-2.5c5.6-1.7,10.4-4.1,14.5-7.3c4.1-3.1,7.3-7,9.5-11.6c2.3-4.6,3.4-9.8,3.4-15.5
				C1596.1,494.5,1592.1,485.8,1584.2,479.6z"/>
			<path class="st1" d="M1845.1,629.5h-21.6l-20.8-47h-96.8l-21.1,47h-20.6l81-179.1h18.8L1845.1,629.5z M1754.4,474.1l-40.6,90.7
				h81L1754.4,474.1z"/>
		</g>
	</g>
</g>
</svg>
