<svg width="728" height="479" viewBox="0 0 728 479" fill="none" xmlns="http://www.w3.org/2000/svg">
<rect width="728" height="479" rx="20" fill="#FF6812"/>
<path d="M297.772 170.45V247.7C297.772 256.3 295.122 263.2 289.822 268.4C284.522 273.5 277.522 276.05 268.822 276.05C260.022 276.05 252.972 273.45 247.672 268.25C242.372 262.95 239.722 255.75 239.722 246.65H253.372C253.472 251.75 254.772 255.9 257.272 259.1C259.872 262.3 263.722 263.9 268.822 263.9C273.922 263.9 277.722 262.4 280.222 259.4C282.722 256.3 283.972 252.4 283.972 247.7V170.45H297.772Z" fill="white"/>
<path d="M295.104 206.13C295.104 199.23 296.304 193.03 298.704 187.53C301.204 182.13 304.604 177.88 308.904 174.78C313.304 171.68 318.354 170.08 324.054 169.98L324.054 184.53C319.154 185.03 315.004 187.03 311.604 190.53C308.304 194.13 306.654 199.33 306.654 206.13C306.654 212.63 308.254 217.73 311.454 221.43C314.754 225.23 318.954 227.13 324.054 227.13C328.054 227.13 331.304 226.03 333.804 223.83C336.304 221.63 338.204 218.88 339.504 215.58C340.804 212.28 342.204 207.83 343.704 202.23C345.504 195.33 347.304 189.78 349.104 185.58C350.904 181.48 353.704 177.93 357.504 174.93C361.404 172.03 366.604 170.58 373.104 170.58C378.804 170.58 383.854 172.03 388.254 174.93C392.654 177.83 396.054 181.88 398.454 187.08C400.854 192.38 402.054 198.43 402.054 205.23C402.054 215.03 399.604 223.03 394.704 229.23C389.804 235.53 383.304 239.08 375.204 239.88L375.204 224.88C379.204 224.38 382.704 222.28 385.704 218.58C388.804 214.88 390.354 209.98 390.354 203.88C390.354 198.18 388.854 193.53 385.854 189.93C382.954 186.33 378.854 184.53 373.554 184.53C369.754 184.53 366.654 185.58 364.254 187.68C361.854 189.88 360.004 192.53 358.704 195.63C357.504 198.83 356.104 203.28 354.504 208.98C352.604 215.88 350.704 221.43 348.804 225.63C347.004 229.83 344.154 233.43 340.254 236.43C336.454 239.43 331.254 240.93 324.654 240.93C319.554 240.93 314.754 239.58 310.254 236.88C305.754 234.18 302.104 230.18 299.304 224.88C296.504 219.58 295.104 213.33 295.104 206.13Z" fill="white"/>
<path d="M322.674 275.448C322.534 275.508 322.144 275.588 321.504 275.688C320.884 275.808 320.294 275.868 319.734 275.868C319.194 275.868 318.924 275.718 318.924 275.418C318.664 274.358 318.024 270.568 317.004 264.048C314.244 270.188 312.604 273.988 312.084 275.448C311.944 275.508 311.554 275.588 310.914 275.688C310.274 275.808 309.684 275.868 309.144 275.868C308.604 275.868 308.334 275.718 308.334 275.418C308.034 274.158 307.614 271.728 307.074 268.128C306.534 264.528 305.974 261.258 305.394 258.318C304.814 255.378 304.214 253.428 303.594 252.468C304.694 251.948 305.594 251.688 306.294 251.688C307.014 251.688 307.534 251.818 307.854 252.078C308.174 252.338 308.464 252.908 308.724 253.788C309.004 254.648 309.254 255.858 309.474 257.418C309.694 258.958 309.884 260.418 310.044 261.798C310.224 263.158 310.314 263.848 310.314 263.868C310.314 263.888 310.324 263.988 310.344 264.168C310.364 264.328 310.514 265.418 310.794 267.438C311.094 269.438 311.284 270.728 311.364 271.308C312.904 268.008 314.494 263.928 316.134 259.068C315.494 255.748 314.844 253.548 314.184 252.468C315.284 251.948 316.184 251.688 316.884 251.688C317.604 251.688 318.124 251.818 318.444 252.078C318.764 252.338 319.054 252.908 319.314 253.788C319.594 254.648 319.844 255.858 320.064 257.418C320.284 258.958 320.474 260.418 320.634 261.798C320.814 263.158 320.904 263.848 320.904 263.868C320.904 263.888 320.914 263.988 320.934 264.168C320.954 264.328 321.104 265.418 321.384 267.438C321.684 269.438 321.874 270.728 321.954 271.308C323.354 267.668 324.774 263.738 326.214 259.518C327.654 255.298 328.414 252.538 328.494 251.238C330.654 251.678 331.734 252.378 331.734 253.338C331.734 254.638 329.674 259.808 325.554 268.848C323.954 272.388 322.994 274.588 322.674 275.448ZM356.736 265.428L353.856 265.398C352.976 265.398 352.306 265.408 351.846 265.428C351.546 268.088 351.386 270.368 351.366 272.268C356.066 272.268 359.556 271.888 361.836 271.128C361.656 272.608 361.206 273.758 360.486 274.578C359.766 275.398 358.866 275.808 357.786 275.808C357.466 275.808 356.566 275.718 355.086 275.538C353.626 275.378 352.076 275.298 350.436 275.298C348.796 275.298 347.196 275.468 345.636 275.808C345.856 274.868 346.336 274.098 347.076 273.498V273.378C347.076 272.298 347.356 269.838 347.916 265.998C347.416 266.178 346.986 266.338 346.626 266.478C346.586 266.038 346.566 265.708 346.566 265.488C346.566 264.148 347.156 263.298 348.336 262.938C348.696 260.298 348.936 257.918 349.056 255.798C348.316 255.758 347.846 255.588 347.646 255.288C347.446 254.988 347.346 254.398 347.346 253.518C347.406 252.618 347.486 252.028 347.586 251.748C349.826 252.048 352.296 252.198 354.996 252.198C357.716 252.198 360.336 251.958 362.856 251.478C362.576 253.578 361.296 254.838 359.016 255.258C357.676 255.518 355.686 255.688 353.046 255.768C353.026 255.988 352.736 258.308 352.176 262.728C353.376 262.768 354.206 262.788 354.666 262.788C356.566 262.788 357.916 262.458 358.716 261.798C358.756 262.198 358.776 262.498 358.776 262.698C358.776 264.518 358.096 265.428 356.736 265.428ZM378.512 269.418C378.932 266.598 379.252 263.888 379.472 261.288C379.712 258.688 379.832 256.328 379.832 254.208C379.832 252.088 379.692 250.698 379.412 250.038C381.552 250.598 382.892 251.478 383.432 252.678C384.972 251.818 386.602 251.388 388.322 251.388C390.042 251.388 391.442 251.878 392.522 252.858C393.622 253.818 394.172 254.998 394.172 256.398C394.172 257.778 393.672 259.068 392.672 260.268C391.672 261.448 390.302 262.328 388.562 262.908C389.962 263.208 391.242 263.888 392.402 264.948C393.582 265.988 394.172 267.278 394.172 268.818C394.172 271.178 393.292 272.998 391.532 274.278C389.792 275.538 387.582 276.168 384.902 276.168C382.242 276.168 379.892 275.398 377.852 273.858C377.872 273.698 378.092 272.218 378.512 269.418ZM389.942 257.088C389.942 256.188 389.662 255.438 389.102 254.838C388.542 254.218 387.752 253.908 386.732 253.908C385.712 253.908 384.732 254.118 383.792 254.538C383.792 255.758 383.522 258.828 382.982 263.748C382.462 268.668 382.202 271.818 382.202 273.198C383.082 273.558 383.932 273.738 384.752 273.738C386.172 273.738 387.342 273.268 388.262 272.328C389.182 271.388 389.642 270.208 389.642 268.788C389.642 267.368 389.162 266.188 388.202 265.248C387.242 264.288 385.902 263.768 384.182 263.688L384.092 262.608C385.932 262.348 387.362 261.678 388.382 260.598C389.422 259.498 389.942 258.328 389.942 257.088ZM407.664 274.128C407.664 273.748 408.244 272.328 409.404 269.868C410.564 267.408 411.874 264.618 413.334 261.498C414.814 258.358 415.814 256.078 416.334 254.658L416.874 253.188C416.714 252.908 416.324 252.398 415.704 251.658C416.424 251.418 417.044 251.298 417.564 251.298C418.104 251.298 418.544 251.338 418.884 251.418C419.244 251.498 419.554 251.638 419.814 251.838C420.094 252.018 420.334 252.208 420.534 252.408C420.754 252.608 420.954 252.908 421.134 253.308C421.314 253.688 421.464 254.038 421.584 254.358C421.704 254.658 421.834 255.088 421.974 255.648C422.134 256.208 422.254 256.698 422.334 257.118C422.434 257.518 422.554 258.088 422.694 258.828C422.854 259.548 423.014 260.248 423.174 260.928C423.334 261.608 423.614 262.908 424.014 264.828C424.414 266.728 424.724 268.158 424.944 269.118C425.184 270.058 425.514 271.118 425.934 272.298C426.374 273.478 426.834 274.408 427.314 275.088C426.154 275.648 425.214 275.928 424.494 275.928C423.774 275.928 423.244 275.748 422.904 275.388C422.564 275.008 422.274 274.448 422.034 273.708C421.794 272.948 421.324 270.928 420.624 267.648C420.164 268.048 419.414 268.268 418.374 268.308L413.244 268.488C412.024 271.468 411.124 274.118 410.544 276.438C408.624 275.758 407.664 274.988 407.664 274.128ZM418.254 257.178C417.974 257.818 417.354 259.188 416.394 261.288C415.454 263.368 414.724 265.028 414.204 266.268H420.354C419.414 261.948 418.714 258.918 418.254 257.178ZM445.359 275.958C444.219 275.958 443.399 275.758 442.899 275.358C442.399 274.958 442.149 274.288 442.149 273.348C442.149 272.408 442.479 269.568 443.139 264.828C443.819 260.068 444.159 256.678 444.159 254.658C444.159 252.618 444.019 251.288 443.739 250.668C445.759 250.828 447.099 251.618 447.759 253.038C449.199 252.238 450.829 251.838 452.649 251.838C454.489 251.838 455.989 252.368 457.149 253.428C458.329 254.468 458.919 255.678 458.919 257.058C458.919 258.438 458.449 259.818 457.509 261.198C456.569 262.558 455.169 263.588 453.309 264.288L453.699 265.458C454.419 267.698 455.459 269.918 456.819 272.118C458.179 274.298 459.289 275.788 460.149 276.588C459.409 276.788 458.669 276.888 457.929 276.888C457.209 276.888 456.479 276.648 455.739 276.168C454.999 275.708 454.379 275.198 453.879 274.638C453.399 274.078 452.859 273.188 452.259 271.968C451.659 270.748 451.229 269.798 450.969 269.118C450.709 268.438 450.419 267.688 450.099 266.868C449.799 266.048 449.639 265.608 449.619 265.548C449.599 265.488 449.569 265.418 449.529 265.338C449.489 265.238 449.459 265.148 449.439 265.068C448.999 265.068 448.569 265.068 448.149 265.068L448.059 263.688C450.599 263.588 452.489 262.678 453.729 260.958C454.409 259.998 454.749 259.018 454.749 258.018C454.749 257.638 454.709 257.268 454.629 256.908C454.289 255.608 453.479 254.798 452.199 254.478C451.839 254.378 451.339 254.328 450.699 254.328C450.059 254.328 449.209 254.538 448.149 254.958C448.149 255.718 447.859 258.208 447.279 262.428C446.719 266.628 446.439 270.138 446.439 272.958C446.439 274.218 446.499 275.198 446.619 275.898C445.979 275.938 445.559 275.958 445.359 275.958ZM473.284 252.018C475.444 252.378 478.034 252.558 481.054 252.558C484.074 252.558 487.234 252.198 490.534 251.478C490.194 254.018 488.904 255.408 486.664 255.648C485.964 255.748 484.884 255.848 483.424 255.948C483.384 256.528 483.054 259.068 482.434 263.568C481.814 268.048 481.504 271.138 481.504 272.838C481.504 274.538 481.644 275.718 481.924 276.378C480.224 275.938 479.064 275.358 478.444 274.638C477.824 273.898 477.514 272.988 477.514 271.908C477.514 270.828 477.764 268.488 478.264 264.888C478.784 261.268 479.094 258.358 479.194 256.158C477.574 256.238 475.984 256.278 474.424 256.278C473.504 256.278 473.044 255.458 473.044 253.818C473.084 253.038 473.164 252.438 473.284 252.018Z" fill="white"/>
<circle cx="480.654" cy="231.948" r="11.5" fill="white"/>
</svg>
