<svg width="689" height="451" viewBox="0 0 689 451" fill="none" xmlns="http://www.w3.org/2000/svg">
<path d="M257.773 136C258.04 136 258.173 136.4 258.173 137.2C258.173 138 258.04 138.4 257.773 138.4C253.373 138.4 250.173 138.8 248.173 139.6C246.173 140.4 244.773 141.8 243.973 143.8C243.307 145.667 242.973 148.6 242.973 152.6V266.6C242.973 279.8 239.907 290.267 233.773 298C227.64 305.867 218.773 309.8 207.173 309.8C202.64 309.8 199.107 309 196.573 307.4C193.907 305.933 192.573 303.867 192.573 301.2C192.573 299.2 193.173 297.6 194.373 296.4C195.573 295.2 197.24 294.6 199.373 294.6C201.64 294.6 203.373 295.067 204.573 296C205.773 297.067 207.04 298.6 208.373 300.6C209.573 302.467 210.64 303.8 211.573 304.6C212.507 305.4 213.84 305.8 215.573 305.8C220.373 305.8 223.907 303 226.173 297.4C228.573 291.933 229.773 283.067 229.773 270.8V152.2C229.773 148.2 229.307 145.267 228.373 143.4C227.44 141.533 225.573 140.267 222.773 139.6C220.107 138.8 215.907 138.4 210.173 138.4C209.907 138.4 209.773 138 209.773 137.2C209.773 136.4 209.907 136 210.173 136L221.773 136.2C227.907 136.467 232.707 136.6 236.173 136.6C239.64 136.6 243.907 136.467 248.973 136.2L257.773 136Z" fill="white"/>
<path d="M213.879 183.4C213.879 188.6 215.146 193.133 217.679 197C220.212 200.867 223.279 204.133 226.879 206.8C230.612 209.333 235.679 212.533 242.079 216.4C249.146 220.667 254.546 224.2 258.279 227C262.146 229.8 265.412 233.4 268.079 237.8C270.879 242.067 272.279 247.2 272.279 253.2C272.279 259.6 270.679 265.4 267.479 270.6C264.279 275.8 259.546 279.933 253.279 283C247.146 285.933 239.746 287.4 231.079 287.4C220.812 287.4 211.412 285.067 202.879 280.4C202.212 280 201.746 279.533 201.479 279C201.346 278.467 201.212 277.667 201.079 276.6L198.479 249.4C198.346 248.867 198.612 248.533 199.279 248.4C200.079 248.267 200.546 248.467 200.679 249C202.812 258.6 206.746 266.867 212.479 273.8C218.346 280.733 226.079 284.2 235.679 284.2C242.346 284.2 247.946 282.4 252.479 278.8C257.146 275.067 259.479 269.2 259.479 261.2C259.479 255.2 258.146 250 255.479 245.6C252.812 241.2 249.546 237.6 245.679 234.8C241.946 231.867 236.812 228.467 230.279 224.6C223.879 220.733 218.812 217.4 215.079 214.6C211.479 211.8 208.412 208.267 205.879 204C203.346 199.733 202.079 194.733 202.079 189C202.079 182.333 203.812 176.667 207.279 172C210.879 167.2 215.479 163.667 221.079 161.4C226.812 159 232.879 157.8 239.279 157.8C247.146 157.8 254.946 159.4 262.679 162.6C264.679 163.267 265.679 164.4 265.679 166L267.079 189C267.079 189.533 266.746 189.8 266.079 189.8C265.412 189.8 265.012 189.533 264.879 189C263.812 182.067 260.946 175.667 256.279 169.8C251.612 163.8 244.879 160.8 236.079 160.8C228.612 160.8 223.012 163 219.279 167.4C215.679 171.667 213.879 177 213.879 183.4Z" fill="white"/>
<circle cx="530.5" cy="184.5" r="12.5" fill="#FF6812"/>
<rect x="65.1091" y="167" width="55" height="55" transform="rotate(-45 65.1091 167)" stroke="#FF6812" stroke-width="5"/>
<rect x="13.5355" y="218.426" width="55" height="55" transform="rotate(-45 13.5355 218.426)" stroke="#FF6812" stroke-width="5"/>
<rect x="116.536" y="218.426" width="55" height="55" transform="rotate(-45 116.536 218.426)" stroke="#FF6812" stroke-width="5"/>
<rect x="64.9619" y="269.853" width="55" height="55" transform="rotate(-45 64.9619 269.853)" stroke="#FF6812" stroke-width="5"/>
<path d="M346.704 264C346.437 264.2 345.571 264.467 344.104 264.8C342.704 265.2 341.371 265.4 340.104 265.4C338.904 265.4 338.204 264.9 338.004 263.9C337.071 259.767 335.971 253.3 334.704 244.5C333.437 235.7 332.571 229.967 332.104 227.3C330.771 230.3 327.937 236.2 323.604 245C319.337 253.8 316.437 260.133 314.904 264C314.571 264.267 313.837 264.567 312.704 264.9C311.637 265.233 310.504 265.4 309.304 265.4C308.104 265.4 307.404 264.9 307.204 263.9C306.204 259.633 305.137 253.267 304.004 244.8C302.871 236.267 301.671 228.833 300.404 222.5C299.137 216.1 297.537 211.267 295.604 208C298.137 206.267 300.237 205.4 301.904 205.4C303.637 205.4 305.037 205.8 306.104 206.6C307.237 207.333 308.137 208.533 308.804 210.2C309.537 211.8 310.104 213.6 310.504 215.6C310.904 217.533 311.237 220.033 311.504 223.1C311.771 226.1 312.004 229 312.204 231.8C312.804 240.733 313.437 247.967 314.104 253.5C321.771 235.7 326.737 222.533 329.004 214C328.271 211.867 327.404 209.867 326.404 208C328.937 206.267 331.037 205.4 332.704 205.4C334.371 205.4 335.737 205.8 336.804 206.6C337.871 207.333 338.737 208.533 339.404 210.2C340.071 211.8 340.604 213.6 341.004 215.6C341.471 217.533 341.837 220.033 342.104 223.1C342.437 226.1 342.704 229 342.904 231.8C343.437 239.6 344.104 246.833 344.904 253.5C348.237 245.7 350.771 239.733 352.504 235.6C354.237 231.4 356.104 226.067 358.104 219.6C360.104 213.133 361.137 207.967 361.204 204.1C365.337 206.1 367.404 209.333 367.404 213.8C367.404 216.8 366.204 220.9 363.804 226.1C361.471 231.3 358.504 237.533 354.904 244.8C351.304 252 348.571 258.4 346.704 264ZM400.695 211.5C396.695 211.5 393.295 213.8 390.495 218.4C387.761 223 385.928 228.4 384.995 234.6H387.795C391.328 234.6 394.395 234.1 396.995 233.1C399.595 232.1 401.595 230.8 402.995 229.2C405.661 226.133 406.995 222.667 406.995 218.8C406.995 216.6 406.461 214.833 405.395 213.5C404.395 212.167 402.828 211.5 400.695 211.5ZM414.795 252C411.728 257 408.361 260.5 404.695 262.5C401.028 264.5 396.761 265.5 391.895 265.5C387.095 265.5 382.895 263.367 379.295 259.1C375.695 254.833 373.895 248.833 373.895 241.1C373.895 232.3 376.261 224.433 380.995 217.5C383.328 214.167 386.361 211.467 390.095 209.4C393.895 207.333 398.061 206.3 402.595 206.3C412.595 206.3 417.595 211.133 417.595 220.8C417.595 226.6 415.328 231.167 410.795 234.5C406.328 237.767 401.128 239.4 395.195 239.4C391.261 239.4 387.728 239.033 384.595 238.3C384.528 238.967 384.495 240 384.495 241.4C384.495 253.2 387.995 259.1 394.995 259.1C401.595 259.1 406.961 255.833 411.095 249.3C413.561 249.633 414.795 250.533 414.795 252ZM447.394 187.6C447.394 190.6 446.727 196.833 445.394 206.3C444.127 215.767 443.26 223.1 442.794 228.3C444.727 221.3 447.494 215.9 451.094 212.1C454.76 208.233 458.727 206.3 462.994 206.3C467.26 206.3 470.927 208.333 473.994 212.4C477.06 216.467 478.594 221.667 478.594 228C478.594 237.933 476.127 246.3 471.194 253.1C466.327 259.9 460.327 263.3 453.194 263.3C451.26 263.3 449.294 263 447.294 262.4C451.56 261.333 455.294 258.867 458.494 255C461.76 251.067 464.127 246.833 465.594 242.3C467.06 237.7 467.794 233.433 467.794 229.5C467.794 225.567 467.094 222.3 465.694 219.7C464.294 217.033 462.127 215.7 459.194 215.7C456.26 215.7 453.394 217.433 450.594 220.9C447.86 224.367 445.594 228.933 443.794 234.6C442.06 240.267 441.194 245.8 441.194 251.2C441.194 256.533 441.827 261.4 443.094 265.8C439.56 264.667 436.76 262.267 434.694 258.6C432.694 254.933 431.694 250.6 431.694 245.6C431.694 240.533 432.794 230.833 434.994 216.5C437.26 202.167 438.394 191.7 438.394 185.1C438.394 178.5 438.094 172.9 437.494 168.3C444.094 170.7 447.394 177.133 447.394 187.6ZM507.756 224.9C505.823 228.233 504.323 231.667 503.256 235.2C502.256 238.667 501.756 242 501.756 245.2C501.756 248.4 502.456 251.133 503.856 253.4C505.323 255.6 507.39 256.7 510.056 256.7C513.79 256.7 517.29 254.667 520.556 250.6C523.823 246.467 526.323 241.5 528.056 235.7C529.856 229.833 530.756 224.433 530.756 219.5C530.756 214.5 530.556 210.4 530.156 207.2C531.756 207.067 532.756 207 533.156 207C538.823 207 541.656 209.9 541.656 215.7C541.656 216.967 540.856 222.133 539.256 231.2C537.656 240.2 536.856 247.433 536.856 252.9C536.856 258.3 537.89 263.1 539.956 267.3C535.756 266.433 532.69 264.6 530.756 261.8C528.89 258.933 527.956 254.833 527.956 249.5C527.956 248.567 528.09 246.767 528.356 244.1C526.556 250.433 523.39 255.533 518.856 259.4C514.323 263.267 509.856 265.2 505.456 265.2C501.123 265.2 497.623 263.567 494.956 260.3C492.29 256.967 490.956 252.4 490.956 246.6C490.956 240.733 492.023 235.033 494.156 229.5C496.356 223.9 499.623 219.067 503.956 215C508.356 210.933 513.256 208.9 518.656 208.9C520.99 208.9 523.556 209.367 526.356 210.3C522.423 211.3 518.823 213.133 515.556 215.8C512.29 218.467 509.69 221.5 507.756 224.9ZM569.833 231.5C572.233 222.833 575.099 216.467 578.433 212.4C581.833 208.267 584.966 206.2 587.833 206.2C590.766 206.2 592.966 207.3 594.433 209.5C595.899 211.633 596.633 214.367 596.633 217.7C596.633 221.033 595.766 223.933 594.033 226.4C592.299 228.8 589.766 230 586.433 230C585.366 230 584.533 229.933 583.933 229.8C586.199 226.533 587.333 223.2 587.333 219.8C587.333 217.4 586.366 216.2 584.433 216.2C582.899 216.2 581.266 217.1 579.533 218.9C577.799 220.7 576.133 223.2 574.533 226.4C572.933 229.6 571.599 233.767 570.533 238.9C569.466 244.033 568.933 249.567 568.933 255.5C568.933 256.167 569.099 259 569.433 264C567.699 264.133 566.699 264.2 566.433 264.2C560.566 264.2 557.633 261.333 557.633 255.6C557.633 254.267 558.333 249.133 559.733 240.2C561.133 231.267 561.833 224.167 561.833 218.9C561.833 213.567 561.266 208.667 560.133 204.2C564.066 205.733 566.799 207.933 568.333 210.8C569.933 213.6 570.733 216.9 570.733 220.7C570.733 224.433 570.433 228.033 569.833 231.5ZM635.022 209.2C635.022 212 634.489 213.933 633.422 215C632.355 216.067 630.789 216.6 628.722 216.6H621.522C621.255 218.333 620.555 222.467 619.422 229C617.155 241.4 616.022 250.767 616.022 257.1C616.022 263.433 616.489 267.633 617.422 269.7C613.622 268.3 610.922 266.2 609.322 263.4C607.722 260.533 606.922 257.067 606.922 253C606.922 248.933 607.155 245.1 607.622 241.5C608.155 237.833 608.889 233.567 609.822 228.7C610.755 223.833 611.422 219.933 611.822 217C608.022 217.533 604.289 218.6 600.622 220.2C600.489 219.133 600.422 218.167 600.422 217.3C600.422 214.1 601.489 211.967 603.622 210.9C605.755 209.767 608.822 209.2 612.822 209.2C613.289 204.267 613.522 200.6 613.522 198.2C613.522 195.733 613.489 193.767 613.422 192.3C613.422 190.833 613.422 189.733 613.422 189C616.489 189.467 618.855 190.833 620.522 193.1C622.189 195.3 623.022 198.333 623.022 202.2C623.022 204.2 622.855 206.633 622.522 209.5C628.322 209.5 632.422 208.533 634.822 206.6C634.955 207.533 635.022 208.4 635.022 209.2Z" fill="white"/>
</svg>
