<svg width="889" height="451" viewBox="0 0 889 451" fill="none" xmlns="http://www.w3.org/2000/svg">
<rect x="136.109" y="184" width="55" height="55" transform="rotate(-45 136.109 184)" stroke="#FF6812" stroke-width="5"/>
<rect x="84.5355" y="235.426" width="55" height="55" transform="rotate(-45 84.5355 235.426)" stroke="#FF6812" stroke-width="5"/>
<rect x="187.536" y="235.426" width="55" height="55" transform="rotate(-45 187.536 235.426)" stroke="#FF6812" stroke-width="5"/>
<rect x="135.962" y="286.853" width="55" height="55" transform="rotate(-45 135.962 286.853)" stroke="#FF6812" stroke-width="5"/>
<path d="M322.385 208.7C325.118 208.7 327.085 209.333 328.285 210.6C329.485 211.8 330.085 214.167 330.085 217.7C330.085 221.233 329.985 225.167 329.785 229.5C329.651 233.767 329.285 238.767 328.685 244.5C328.151 250.167 327.418 255.5 326.485 260.5C325.618 265.5 324.351 270.5 322.685 275.5C321.085 280.5 319.218 284.767 317.085 288.3C314.951 291.9 312.285 294.8 309.085 297C305.885 299.267 302.451 300.4 298.785 300.4C295.051 300.4 291.985 299.267 289.585 297C287.118 294.8 285.885 292.133 285.885 289C285.885 285.933 286.785 283.3 288.585 281.1C290.385 278.9 292.751 277.8 295.685 277.8C296.885 277.8 297.985 278.033 298.985 278.5C296.518 280.833 295.285 283.9 295.285 287.7C295.285 289.7 295.718 291.233 296.585 292.3C297.451 293.433 298.585 294 299.985 294C303.585 294 306.718 291.833 309.385 287.5C312.051 283.233 314.085 277.6 315.485 270.6C318.218 257.333 319.585 242.4 319.585 225.8C319.585 221.067 319.385 215.433 318.985 208.9C320.185 208.767 321.318 208.7 322.385 208.7ZM326.985 198.7C321.385 198.7 318.585 196.8 318.585 193C318.585 191.667 319.085 189.8 320.085 187.4C321.551 187.133 322.818 187 323.885 187C329.485 187 332.285 188.9 332.285 192.7C332.285 194.033 331.785 195.9 330.785 198.3C329.318 198.567 328.051 198.7 326.985 198.7ZM368.29 214.2C366.09 214.2 364.09 214.9 362.29 216.3C360.557 217.7 359.69 219.633 359.69 222.1C359.69 224.5 360.49 226.767 362.09 228.9C363.757 231.033 365.757 232.933 368.09 234.6C370.424 236.267 372.79 237.967 375.19 239.7C380.79 243.833 383.59 248.267 383.59 253C383.59 257.733 381.69 261.6 377.89 264.6C374.09 267.533 369.224 269 363.29 269C357.424 269 352.857 267.833 349.59 265.5C346.39 263.167 344.79 260.433 344.79 257.3C344.79 254.1 345.59 251.6 347.19 249.8C348.79 248 350.724 247.1 352.99 247.1C354.19 247.1 355.324 247.367 356.39 247.9C354.924 249.767 354.19 251.967 354.19 254.5C354.19 257.033 354.957 259.167 356.49 260.9C358.09 262.633 360.257 263.5 362.99 263.5C365.79 263.5 368.157 262.8 370.09 261.4C372.024 259.933 372.99 258.1 372.99 255.9C372.99 253.7 372.424 251.767 371.29 250.1C370.157 248.433 368.724 247 366.99 245.8C365.324 244.6 363.49 243.267 361.49 241.8C359.49 240.333 357.624 238.9 355.89 237.5C354.224 236.033 352.824 234.233 351.69 232.1C350.557 229.9 349.99 227.5 349.99 224.9C349.99 220.167 351.79 216.3 355.39 213.3C358.99 210.233 363.524 208.7 368.99 208.7C374.457 208.7 378.457 209.833 380.99 212.1C383.524 214.367 384.79 216.933 384.79 219.8C384.79 222.6 384.09 224.933 382.69 226.8C381.29 228.6 379.49 229.5 377.29 229.5C376.224 229.5 374.99 229.2 373.59 228.6C375.324 226.467 376.19 224.167 376.19 221.7C376.19 219.233 375.424 217.367 373.89 216.1C372.424 214.833 370.557 214.2 368.29 214.2ZM470.886 212.2L453.786 267H444.386L431.186 223.5L417.986 267H408.586L391.386 212.2H400.686L413.286 258.2L426.886 212.2H436.186L449.486 258.3L461.886 212.2H470.886ZM529.917 237.5C529.917 239.233 529.817 241.067 529.617 243H485.817C486.15 248.4 487.983 252.633 491.317 255.7C494.717 258.7 498.817 260.2 503.617 260.2C507.55 260.2 510.817 259.3 513.417 257.5C516.083 255.633 517.95 253.167 519.017 250.1H528.817C527.35 255.367 524.417 259.667 520.017 263C515.617 266.267 510.15 267.9 503.617 267.9C498.417 267.9 493.75 266.733 489.617 264.4C485.55 262.067 482.35 258.767 480.017 254.5C477.683 250.167 476.517 245.167 476.517 239.5C476.517 233.833 477.65 228.867 479.917 224.6C482.183 220.333 485.35 217.067 489.417 214.8C493.55 212.467 498.283 211.3 503.617 211.3C508.817 211.3 513.417 212.433 517.417 214.7C521.417 216.967 524.483 220.1 526.617 224.1C528.817 228.033 529.917 232.5 529.917 237.5ZM520.517 235.6C520.517 232.133 519.75 229.167 518.217 226.7C516.683 224.167 514.583 222.267 511.917 221C509.317 219.667 506.417 219 503.217 219C498.617 219 494.683 220.467 491.417 223.4C488.217 226.333 486.383 230.4 485.917 235.6H520.517ZM551.029 222.4C552.895 219.133 555.629 216.467 559.229 214.4C562.829 212.333 566.929 211.3 571.529 211.3C576.462 211.3 580.895 212.467 584.829 214.8C588.762 217.133 591.862 220.433 594.129 224.7C596.395 228.9 597.529 233.8 597.529 239.4C597.529 244.933 596.395 249.867 594.129 254.2C591.862 258.533 588.729 261.9 584.729 264.3C580.795 266.7 576.395 267.9 571.529 267.9C566.795 267.9 562.629 266.867 559.029 264.8C555.495 262.733 552.829 260.1 551.029 256.9V267H541.929V193H551.029V222.4ZM588.229 239.4C588.229 235.267 587.395 231.667 585.729 228.6C584.062 225.533 581.795 223.2 578.929 221.6C576.129 220 573.029 219.2 569.629 219.2C566.295 219.2 563.195 220.033 560.329 221.7C557.529 223.3 555.262 225.667 553.529 228.8C551.862 231.867 551.029 235.433 551.029 239.5C551.029 243.633 551.862 247.267 553.529 250.4C555.262 253.467 557.529 255.833 560.329 257.5C563.195 259.1 566.295 259.9 569.629 259.9C573.029 259.9 576.129 259.1 578.929 257.5C581.795 255.833 584.062 253.467 585.729 250.4C587.395 247.267 588.229 243.6 588.229 239.4ZM606.107 239.4C606.107 233.8 607.24 228.9 609.507 224.7C611.773 220.433 614.873 217.133 618.807 214.8C622.807 212.467 627.24 211.3 632.107 211.3C636.907 211.3 641.073 212.333 644.607 214.4C648.14 216.467 650.773 219.067 652.507 222.2V212.2H661.707V267H652.507V256.8C650.707 260 648.007 262.667 644.407 264.8C640.873 266.867 636.74 267.9 632.007 267.9C627.14 267.9 622.74 266.7 618.807 264.3C614.873 261.9 611.773 258.533 609.507 254.2C607.24 249.867 606.107 244.933 606.107 239.4ZM652.507 239.5C652.507 235.367 651.673 231.767 650.007 228.7C648.34 225.633 646.073 223.3 643.207 221.7C640.407 220.033 637.307 219.2 633.907 219.2C630.507 219.2 627.407 220 624.607 221.6C621.807 223.2 619.573 225.533 617.907 228.6C616.24 231.667 615.407 235.267 615.407 239.4C615.407 243.6 616.24 247.267 617.907 250.4C619.573 253.467 621.807 255.833 624.607 257.5C627.407 259.1 630.507 259.9 633.907 259.9C637.307 259.9 640.407 259.1 643.207 257.5C646.073 255.833 648.34 253.467 650.007 250.4C651.673 247.267 652.507 243.633 652.507 239.5ZM686.185 221.1C687.785 217.967 690.051 215.533 692.985 213.8C695.985 212.067 699.618 211.2 703.885 211.2V220.6H701.485C691.285 220.6 686.185 226.133 686.185 237.2V267H677.085V212.2H686.185V221.1ZM725.489 219.7V252C725.489 254.667 726.056 256.567 727.189 257.7C728.323 258.767 730.289 259.3 733.089 259.3H739.789V267H731.589C726.523 267 722.723 265.833 720.189 263.5C717.656 261.167 716.389 257.333 716.389 252V219.7H709.289V212.2H716.389V198.4H725.489V212.2H739.789V219.7H725.489Z" fill="white"/>
<circle cx="657" cy="192" r="11" fill="#FF6812"/>
</svg>
