<svg width="361" height="361" viewBox="0 0 361 361" fill="none" xmlns="http://www.w3.org/2000/svg">
<path d="M203.773 91C204.04 91 204.173 91.4 204.173 92.2C204.173 93 204.04 93.4 203.773 93.4C199.373 93.4 196.173 93.8 194.173 94.6C192.173 95.4 190.773 96.8 189.973 98.8C189.307 100.667 188.973 103.6 188.973 107.6V221.6C188.973 234.8 185.907 245.267 179.773 253C173.64 260.867 164.773 264.8 153.173 264.8C148.64 264.8 145.107 264 142.573 262.4C139.907 260.933 138.573 258.867 138.573 256.2C138.573 254.2 139.173 252.6 140.373 251.4C141.573 250.2 143.24 249.6 145.373 249.6C147.64 249.6 149.373 250.067 150.573 251C151.773 252.067 153.04 253.6 154.373 255.6C155.573 257.467 156.64 258.8 157.573 259.6C158.507 260.4 159.84 260.8 161.573 260.8C166.373 260.8 169.907 258 172.173 252.4C174.573 246.933 175.773 238.067 175.773 225.8V107.2C175.773 103.2 175.307 100.267 174.373 98.4C173.44 96.5333 171.573 95.2667 168.773 94.6C166.107 93.8 161.907 93.4 156.173 93.4C155.907 93.4 155.773 93 155.773 92.2C155.773 91.4 155.907 91 156.173 91L167.773 91.2C173.907 91.4667 178.707 91.6 182.173 91.6C185.64 91.6 189.907 91.4667 194.973 91.2L203.773 91Z" fill="white"/>
<path d="M159.879 138.4C159.879 143.6 161.146 148.133 163.679 152C166.212 155.867 169.279 159.133 172.879 161.8C176.612 164.333 181.679 167.533 188.079 171.4C195.146 175.667 200.546 179.2 204.279 182C208.146 184.8 211.412 188.4 214.079 192.8C216.879 197.067 218.279 202.2 218.279 208.2C218.279 214.6 216.679 220.4 213.479 225.6C210.279 230.8 205.546 234.933 199.279 238C193.146 240.933 185.746 242.4 177.079 242.4C166.812 242.4 157.412 240.067 148.879 235.4C148.212 235 147.746 234.533 147.479 234C147.346 233.467 147.212 232.667 147.079 231.6L144.479 204.4C144.346 203.867 144.612 203.533 145.279 203.4C146.079 203.267 146.546 203.467 146.679 204C148.812 213.6 152.746 221.867 158.479 228.8C164.346 235.733 172.079 239.2 181.679 239.2C188.346 239.2 193.946 237.4 198.479 233.8C203.146 230.067 205.479 224.2 205.479 216.2C205.479 210.2 204.146 205 201.479 200.6C198.812 196.2 195.546 192.6 191.679 189.8C187.946 186.867 182.812 183.467 176.279 179.6C169.879 175.733 164.812 172.4 161.079 169.6C157.479 166.8 154.412 163.267 151.879 159C149.346 154.733 148.079 149.733 148.079 144C148.079 137.333 149.812 131.667 153.279 127C156.879 122.2 161.479 118.667 167.079 116.4C172.812 114 178.879 112.8 185.279 112.8C193.146 112.8 200.946 114.4 208.679 117.6C210.679 118.267 211.679 119.4 211.679 121L213.079 144C213.079 144.533 212.746 144.8 212.079 144.8C211.412 144.8 211.012 144.533 210.879 144C209.812 137.067 206.946 130.667 202.279 124.8C197.612 118.8 190.879 115.8 182.079 115.8C174.612 115.8 169.012 118 165.279 122.4C161.679 126.667 159.879 132 159.879 138.4Z" fill="white"/>
<circle cx="180.5" cy="293.5" r="12.5" fill="#FF6812"/>
<rect x="180.5" y="7.25881" width="245" height="245" transform="rotate(45 180.5 7.25881)" stroke="#FF6812" stroke-width="10"/>
</svg>
