<svg width="257" height="329" viewBox="0 0 257 329" fill="none" xmlns="http://www.w3.org/2000/svg">
<path d="M97.2078 193.218L119.807 69.4093L142.864 73.6179L120.264 197.427C118.16 208.955 114.023 218.251 107.853 225.314C101.683 232.378 94.0546 237.231 84.9687 239.874C75.9775 242.452 66.1181 242.762 55.3904 240.804C44.6627 238.845 35.472 235.265 27.8182 230.063C20.1645 224.86 14.6627 218.065 11.313 209.678C7.96328 201.29 7.33328 191.372 9.42299 179.924L32.5996 184.155C31.2552 191.52 31.5128 197.813 33.3726 203.033C35.2324 208.253 38.3594 212.422 42.7536 215.541C47.228 218.674 52.5874 220.81 58.8318 221.95C64.9162 223.061 70.5939 222.774 75.865 221.089C81.2307 219.338 85.7822 216.157 89.5195 211.545C93.2714 206.852 95.8342 200.743 97.2078 193.218Z" fill="#FF6812"/>
<path d="M220.327 259.926C219.142 256.616 217.301 253.821 214.805 251.541C212.361 249.148 208.491 247.593 203.193 246.876C197.948 246.046 190.588 246.347 181.111 247.779C173.101 248.872 165.691 249.425 158.88 249.435C152.152 249.417 146.13 248.632 140.814 247.081C135.58 245.5 131.106 243.041 127.391 239.703C123.675 236.366 120.825 231.925 118.841 226.381C116.945 221.085 116.311 215.664 116.94 210.118C117.651 204.542 119.507 199.163 122.506 193.982C125.589 188.771 129.821 184.036 135.204 179.775C140.587 175.514 147.044 172.036 154.574 169.341C165.331 165.49 175.197 164.105 184.173 165.186C193.148 166.268 200.804 169.268 207.139 174.189C213.445 179.026 217.976 185.293 220.73 192.988L197.768 201.208C196.435 197.484 194.029 194.285 190.551 191.609C187.126 188.821 182.888 187.024 177.839 186.218C172.872 185.382 167.368 186.045 161.327 188.207C154.956 190.488 150.139 193.332 146.878 196.74C143.67 200.036 141.689 203.499 140.935 207.129C140.264 210.73 140.521 214.186 141.706 217.496C142.594 219.978 143.808 222.064 145.346 223.754C146.938 225.331 149.147 226.548 151.973 227.403C154.77 228.175 158.448 228.539 163.006 228.494C167.564 228.45 173.24 228.005 180.032 227.161C191.926 225.704 202.054 225.439 210.414 226.367C218.775 227.295 225.596 229.661 230.878 233.464C236.161 237.268 240.091 242.769 242.668 249.969C244.771 255.844 245.455 261.667 244.72 267.438C244.068 273.179 242.062 278.658 238.702 283.875C235.394 288.979 230.911 293.665 225.25 297.932C219.642 302.086 212.908 305.571 205.047 308.385C193.214 312.62 182.446 314.094 172.743 312.807C163.04 311.519 154.879 308.279 148.259 303.087C141.64 297.895 136.997 291.576 134.331 284.128L157.418 275.864C160 282.034 163.613 286.389 168.256 288.928C172.869 291.384 177.857 292.539 183.219 292.393C188.552 292.165 193.576 291.206 198.293 289.518C204.582 287.267 209.54 284.558 213.168 281.393C216.879 278.197 219.333 274.752 220.53 271.056C221.727 267.36 221.66 263.65 220.327 259.926Z" fill="#1A3B5E"/>
</svg>
