<!DOCTYPE svg PUBLIC "-//W3C//DTD SVG 1.1//EN" "http://www.w3.org/Graphics/SVG/1.1/DTD/svg11.dtd">
<!-- Uploaded to: SVG Repo, www.svgrepo.com, Transformed by: SVG Repo Mixer Tools -->
<svg fill="#ff6812" height="800px" width="800px" version="1.1" id="Capa_1" xmlns="http://www.w3.org/2000/svg" xmlns:xlink="http://www.w3.org/1999/xlink" viewBox="0 0 487.729 487.729" xml:space="preserve" stroke="#ff6812" stroke-width="4.87729">
<g id="SVGRepo_bgCarrier" stroke-width="0"/>
<g id="SVGRepo_tracerCarrier" stroke-linecap="round" stroke-linejoin="round"/>
<g id="SVGRepo_iconCarrier"> <g> <path d="M447.292,165.3h-13.844v-38.659c0-22.297-18.14-40.437-40.436-40.437h-7.004V28.066c0-2.348-1.903-4.25-4.25-4.25H105.971 c-2.347,0-4.25,1.902-4.25,4.25v58.138h-7.004c-22.297,0-40.436,18.14-40.436,40.437V165.3H40.437C18.14,165.3,0,183.439,0,205.736 v138.232c0,22.297,18.14,40.436,40.437,40.436h61.285v75.257c0,2.348,1.903,4.25,4.25,4.25h275.786c2.347,0,4.25-1.902,4.25-4.25 v-75.257h61.285c22.297,0,40.437-18.14,40.437-40.436V205.736C487.729,183.439,469.589,165.3,447.292,165.3z M110.221,455.412 v-70.221h267.286v25.367H253.063c-2.347,0-4.25,1.903-4.25,4.25c0,2.348,1.903,4.25,4.25,4.25h124.445v36.354H110.221z M393.012,94.704c17.61,0,31.936,14.326,31.936,31.937v4.578h-17.62c-2.347,0-4.25,1.902-4.25,4.25c0,2.347,1.903,4.25,4.25,4.25 h17.62V165.3h-21.667c-2.347,0-4.25,1.903-4.25,4.25v12.821c0,10.536-5.132,19.894-13.024,25.714V94.704H393.012z M110.221,32.316 h267.286v180.078c0,0.053,0.014,0.103,0.016,0.155c-3.271,1.134-6.777,1.758-10.429,1.758h-246.46 c-3.651,0-7.158-0.624-10.429-1.758c0.002-0.053,0.016-0.103,0.016-0.155V32.316z M62.78,126.641 c0-17.61,14.327-31.937,31.936-31.937h7.004v113.381c-7.892-5.82-13.024-15.178-13.024-25.714V169.55c0-2.347-1.903-4.25-4.25-4.25 H62.78V126.641z M447.292,375.905H40.437c-17.61,0-31.937-14.326-31.937-31.936v-45.628h84.753c2.347,0,4.25-1.902,4.25-4.25 c0-2.347-1.903-4.25-4.25-4.25H8.5v-35.39h190.379c2.347,0,4.25-1.902,4.25-4.25c0-2.347-1.903-4.25-4.25-4.25H8.5v-40.215 c0-17.609,14.327-31.937,31.937-31.937h39.761v8.571c0,22.297,18.14,40.437,40.437,40.437h246.46 c22.297,0,40.437-18.14,40.437-40.437V173.8h39.761c17.61,0,31.937,14.327,31.937,31.937v138.232c0,0.256-0.013,0.509-0.02,0.763 h-67.122c-2.347,0-4.25,1.903-4.25,4.25c0,2.348,1.903,4.25,4.25,4.25h65.768C473.874,366.338,461.681,375.905,447.292,375.905z"/> <path d="M424.801,318.022c13.129,0,23.81-10.681,23.81-23.81c0-13.129-10.681-23.81-23.81-23.81 c-13.129,0-23.81,10.681-23.81,23.81C400.991,307.342,411.672,318.022,424.801,318.022z M424.801,278.902 c8.442,0,15.31,6.868,15.31,15.31c0,8.442-6.868,15.31-15.31,15.31c-8.442,0-15.31-6.868-15.31-15.31 C409.491,285.771,416.359,278.902,424.801,278.902z"/> <path d="M359.273,270.402c-13.129,0-23.81,10.681-23.81,23.81c0,13.13,10.681,23.81,23.81,23.81c13.129,0,23.81-10.681,23.81-23.81 C383.083,281.083,372.402,270.402,359.273,270.402z M359.273,309.522c-8.442,0-15.31-6.868-15.31-15.31 c0-8.441,6.868-15.31,15.31-15.31s15.31,6.868,15.31,15.31C374.583,302.654,367.715,309.522,359.273,309.522z"/> <path d="M212.964,410.559h-55.747c-2.347,0-4.25,1.903-4.25,4.25c0,2.348,1.903,4.25,4.25,4.25h55.747 c2.347,0,4.25-1.902,4.25-4.25C217.214,412.462,215.311,410.559,212.964,410.559z"/> </g> </g>
</svg>